<?xml version="1.0" encoding="utf-8"?>
<!-- Generator: Adobe Illustrator 16.0.0, SVG Export Plug-In . SVG Version: 6.00 Build 0)  -->
<!DOCTYPE svg PUBLIC "-//W3C//DTD SVG 1.1//EN" "http://www.w3.org/Graphics/SVG/1.1/DTD/svg11.dtd" [
	<!ENTITY ns_extend "http://ns.adobe.com/Extensibility/1.0/">
	<!ENTITY ns_ai "http://ns.adobe.com/AdobeIllustrator/10.0/">
	<!ENTITY ns_graphs "http://ns.adobe.com/Graphs/1.0/">
	<!ENTITY ns_vars "http://ns.adobe.com/Variables/1.0/">
	<!ENTITY ns_imrep "http://ns.adobe.com/ImageReplacement/1.0/">
	<!ENTITY ns_sfw "http://ns.adobe.com/SaveForWeb/1.0/">
	<!ENTITY ns_custom "http://ns.adobe.com/GenericCustomNamespace/1.0/">
	<!ENTITY ns_adobe_xpath "http://ns.adobe.com/XPath/1.0/">
]>
<svg version="1.1" id="Layer_1" xmlns:x="&ns_extend;" xmlns:i="&ns_ai;" xmlns:graph="&ns_graphs;"
	 xmlns="http://www.w3.org/2000/svg" xmlns:xlink="http://www.w3.org/1999/xlink" x="0px" y="0px" width="612px" height="189px"
	 viewBox="0 0 612 189" enable-background="new 0 0 612 189" xml:space="preserve">
<switch>
	<g>
		<g>
			<g>
				<g>
					<g>
						<g>
							<path fill="#FFFFFF" d="M69.528,82.637c2.767,0,4.152,0,6.931,0c3.921,0,5.979,1.983,5.979,7.501
								c0.001,13.386,0,26.77,0.001,40.158c0,0.224-0.009,0.435-0.018,0.651c4.047-0.003,8.087-0.004,12.133-0.008
								c0.005-0.393,0.001-0.794-0.014-1.193c0-13.019,0.002-26.035,0-39.054c0.996-11.458-5.56-19.62-17.487-19.09
								c-8.03,0-12.027-0.001-19.698-0.001c0,19.789,0,39.577-0.001,59.365c4.037-0.008,8.065-0.01,12.103-0.014
								C69.445,114.851,69.415,98.739,69.528,82.637z"/>
							<path fill="#FFFFFF" d="M123.291,71.601c-4.881,0-7.285,0-12.267,0c-2.498,19.687-2.443,39.503-2.284,59.33
								c4.033-0.001,8.062-0.004,12.096-0.006C120.647,111.09,120.533,91.265,123.291,71.601z"/>
							<path fill="#FFFFFF" d="M172.235,130.296c-0.944-15.864-27.236-24.278-26.932-40.929c0.099-5.233,3.948-7.614,7.66-7.614
								c3.706,0,4.064,2.095,3.466,7.614c-0.142,1.279-0.078,1.919-0.078,3.198c4.234,0,6.368,0,10.76,0
								c0-0.973-0.042-1.458,0.014-2.427c3.646-9.926,0.892-19.826-11.438-19.419c-10.363,0.343-21.129,8.641-21.551,19.419
								c-0.758,19.349,25.061,24.828,25.606,40.757c4.169-0.002,8.338-0.004,12.508-0.006
								C172.248,130.693,172.246,130.495,172.235,130.296z"/>
							<path fill="#FFFFFF" d="M146.402,125.552c-4.681,0-7.021,0-11.683,0c0.101,1.899,0.069,2.843,0.087,4.744
								c-0.015,0.208,0.004,0.412,0.001,0.62c3.962-0.003,7.925-0.006,11.887-0.008C146.718,128.81,146.67,127.697,146.402,125.552z
								"/>
							<path fill="#FFFFFF" d="M194.682,117.386c1.731,0,2.606,0,4.346,0c5.737,0,9.294,2.651,10.021,9.821
								c0.14,1.383,0.203,2.563,0.218,3.667c3.857-0.002,7.723-0.003,11.578-0.005c-0.001-1.003-0.017-2.083-0.061-3.333
								c-0.263-8.053-9.832-15.907-9.848-16.439c0,0,8.561-7.721,8.561-15.665c0-2.428-0.03-3.639-0.01-6.067
								c1.371-9.943-3.984-18.632-14.863-17.764c-6.719,0-10.082-0.001-17.154-0.001c-8.526,21.51-4.145,39.295-3.073,59.282
								c4.305-0.002,8.604-0.002,12.91-0.005C197.195,126.358,196.523,121.874,194.682,117.386z M195.388,82.637
								c2.382,0,3.57-0.002,5.959-0.002c4.386,0,5.044,2.428,5.044,7.943c0,3.048-0.002,4.569-0.002,7.615
								c0,6.176-3,8.163-7.875,8.163c-2.05,0-3.067,0-5.097,0C193.417,96.866,191.672,92.123,195.388,82.637z"/>
							<path fill="#FFFFFF" d="M246.484,71.601c-4.844,0-7.324,0-12.033,0c-0.2,19.603-0.143,39.204-0.044,58.806
								c-0.004,0.154,0.004,0.304,0.002,0.458c4.028,0,8.048-0.003,12.075-0.005C246.481,111.102,246.484,91.352,246.484,71.601z"/>
							<path fill="#FFFFFF" d="M270.465,130.407c0-19.6,0-39.203,0-58.806c-4.578,0-6.867,0-11.439,0c0,19.75,0,39.499,0,59.248
								c3.811-0.001,7.625-0.002,11.435-0.004C270.459,130.703,270.469,130.557,270.465,130.407z"/>
							<path fill="#FFFFFF" d="M297.418,119.819c2.29,0,3.439,0,5.713,0c11.518,0.489,17.944-8.25,17.873-19.09
								c0.111-4.017,0.193-6.022,0.186-10.038c0.423-11.019-6.644-19.548-18.051-19.09c-7.125,0-10.692,0.001-17.822,0.001
								c-0.001,19.746,0,39.492,0,59.239c4.036-0.002,8.073-0.003,12.103-0.005C297.419,127.16,297.419,123.488,297.418,119.819z
								 M297.419,82.637c2.289,0,3.437,0,5.72,0c3.855,0,5.947,1.763,5.947,7.281c0,4.632-0.01,6.948-0.05,11.584
								c-0.048,5.518-2.084,7.282-5.911,7.282c-2.268,0-3.417,0-5.706,0C297.418,100.066,297.419,91.35,297.419,82.637z"/>
							<path fill="#FFFFFF" d="M354.63,82.635c5.061,0,7.595,0.002,12.657,0.002c0-4.417,0-6.623,0-11.037
								c-12.472,0-24.94,0.001-37.405,0c0,4.414,0,6.62,0,11.037c5.057,0,7.588-0.002,12.651-0.002
								c-0.092,16.088-0.049,32.12-0.024,48.182c4.037-0.001,8.065-0.003,12.101-0.003
								C354.574,114.753,354.531,98.734,354.63,82.635z"/>
							<path fill="#FFFFFF" d="M391.269,71.601c-4.842,0-7.263,0.001-12.104,0.001c0,19.757,0,39.468,0,59.199
								c4.037-0.007,8.073-0.008,12.104-0.009C391.269,111.065,391.269,91.342,391.269,71.601z"/>
							<path fill="#FFFFFF" d="M415.695,71.601c-4.889,0-7.333,0-12.215,0c3.037,19.729,6.073,39.452,9.109,59.182
								c3.924-0.004,7.856-0.004,11.788-0.006C421.479,111.048,418.588,91.327,415.695,71.601z"/>
							<path fill="#FFFFFF" d="M444.236,71.601c-4.143,0-6.218,0-10.44,0c-2.389,19.776-5.39,39.472-8.294,59.175
								c3.585-0.001,7.17-0.004,10.756-0.006C439.396,111.104,442.501,91.427,444.236,71.601z"/>
							<path fill="#FFFFFF" d="M468.467,89.367c-0.285-5.519,1.326-7.614,5.131-7.614c3.809,0,7.154,2.095,7.421,7.614
								c0.065,13.788,0.033,27.578,0.031,41.363c4.029-0.002,8.066-0.005,12.101-0.008c-0.006-0.146,0.007-0.282,0.004-0.426
								c-0.045-13.388-0.043-26.772-0.012-40.158c-0.725-11.091-10.571-19.208-21.199-19.419
								c-11.055-0.219-16.867,9.11-15.542,19.419c0.002,13.386,0.002,26.77,0.002,40.158c-0.004,0.154,0.007,0.305,0.005,0.458
								c4.032-0.002,8.064-0.012,12.1-0.015C468.51,116.951,468.561,103.158,468.467,89.367z"/>
							<path fill="#FFFFFF" d="M517.083,125.552c-4.568,0-6.846,0-11.414,0c0.024,1.899,0.029,2.843,0.029,4.744
								c-0.005,0.142,0.006,0.274,0.004,0.416c3.81-0.002,7.623-0.005,11.435-0.007C517.137,128.743,517.127,127.63,517.083,125.552
								z"/>
							<path fill="#FFFFFF" d="M541.781,130.296c-0.417-18.241-23.428-23.893-23.653-40.929c-0.08-5.502,1.865-7.618,5.806-7.618
								c3.948,0,6.334,2.099,6.31,7.618c-0.007,1.279-0.015,1.919-0.034,3.198c4.578,0,6.866,0,11.448,0
								c0.014-0.973,0.014-1.458,0.014-2.427c0.421-11.208-7.308-19.424-18.445-19.419c-11.535,0.002-17.714,8.597-17.204,19.419
								c0.83,17.817,23.057,24.036,23.637,40.555c4.043-0.008,8.08-0.009,12.123-0.013
								C541.781,130.553,541.783,130.425,541.781,130.296z"/>
						</g>
						<g>
							<path fill="#FFFFFF" d="M98.704,135.513l-0.415-5.496l-12.111-0.113l0.466,6.157c0.14,1.817-0.011,3.245-0.407,4.351h12.463
								C98.822,138.888,98.834,137.266,98.704,135.513z"/>
							<polygon fill="#FFFFFF" points="73.188,129.775 61.078,129.66 61.887,140.411 73.99,140.411 							"/>
							<polygon fill="#FFFFFF" points="124.713,130.271 112.602,130.15 113.378,140.411 125.479,140.411 							"/>
							<path fill="#FFFFFF" d="M150.185,136.834l-0.416-5.505H138.33l0.352,4.731c0.114,1.533,0.321,2.982,0.616,4.351h11.626
								C150.547,139.43,150.291,138.25,150.185,136.834z"/>
							<path fill="#FFFFFF" d="M174.772,136.061c-0.146-1.914-0.469-3.676-0.922-5.326l-12.975-0.123
								c1.006,1.868,1.678,3.901,1.852,6.223c0.104,1.416,0.026,2.596-0.203,3.577h12.284
								C174.898,139.042,174.887,137.594,174.772,136.061z"/>
							<polygon fill="#FFFFFF" points="200.023,130.987 187.913,130.872 188.629,140.411 200.731,140.411 							"/>
							<path fill="#FFFFFF" d="M224.403,133.314c-0.054-0.722-0.132-1.416-0.213-2.099l-12.126-0.115
								c0.085,0.591,0.164,1.212,0.208,1.879l0.562,7.433h12.104L224.403,133.314z"/>
							<path fill="#FFFFFF" d="M274.676,136.171l-0.333-4.479l-11.455-0.107l0.408,5.359c0.103,1.36,0.033,2.51-0.175,3.466h11.603
								C274.799,139.077,274.788,137.663,274.676,136.171z"/>
							<path fill="#FFFFFF" d="M250.755,136.945l-0.417-5.478l-12.109-0.115l0.364,4.82c0.112,1.491,0.314,2.906,0.593,4.24h12.26
								C251.092,139.455,250.857,138.305,250.755,136.945z"/>
							<polygon fill="#FFFFFF" points="301.313,131.952 289.204,131.837 289.85,140.411 301.951,140.411 							"/>
							<polygon fill="#FFFFFF" points="358.567,132.497 346.457,132.383 347.064,140.411 359.163,140.411 							"/>
							<polygon fill="#FFFFFF" points="395.228,132.849 383.12,132.734 383.698,140.411 395.801,140.411 							"/>
							<polygon fill="#FFFFFF" points="440.681,133.281 429.981,133.179 429.463,140.348 427.862,133.16 416.022,133.05
								417.716,140.411 440.121,140.411 							"/>
							<path fill="#FFFFFF" d="M472.769,136.834l-0.245-3.247l-12.112-0.114l0.198,2.587c0.114,1.533,0.325,2.982,0.622,4.351
								h12.266C473.122,139.422,472.877,138.242,472.769,136.834z"/>
							<path fill="#FFFFFF" d="M497.351,136.061l-0.167-2.241l-12.11-0.113l0.239,3.128c0.106,1.407,0.029,2.588-0.195,3.577h12.265
								C497.48,139.042,497.466,137.594,497.351,136.061z"/>
							<path fill="#FFFFFF" d="M521.396,136.834l-0.209-2.787l-11.454-0.108l0.162,2.122c0.118,1.533,0.319,2.982,0.614,4.351
								h11.628C521.758,139.43,521.504,138.25,521.396,136.834z"/>
							<path fill="#FFFFFF" d="M545.984,136.061c-0.046-0.605-0.113-1.192-0.195-1.774l-12.29-0.116
								c0.217,0.843,0.37,1.73,0.44,2.665c0.106,1.416,0.034,2.596-0.203,3.577h12.285
								C546.111,139.042,546.101,137.594,545.984,136.061z"/>
						</g>
						<path fill="#FFFFFF" d="M101.919,136.327l-12.085-0.115c0.156,4.905-1.974,6.703-5.637,6.703h-6.824l-0.509-6.825
							l-12.111-0.12l0.566,7.59h35.877C101.764,141.448,102.015,139.04,101.919,136.327z"/>
						<polygon fill="#FFFFFF" points="128.386,136.581 116.276,136.468 116.811,143.561 128.914,143.561 						"/>
						<path fill="#FFFFFF" d="M153.399,136.816l-11.428-0.108c0.28,2.536,0.843,4.811,1.637,6.853h15.037
							C155.789,143.083,153.877,141.12,153.399,136.816z"/>
						<path fill="#FFFFFF" d="M177.991,137.055l-12.077-0.116c0.133,4.222-1.479,6.149-4.243,6.622h15.705
							C177.843,141.613,178.058,139.453,177.991,137.055z"/>
						<polygon fill="#FFFFFF" points="227.922,137.531 215.811,137.411 216.27,143.561 228.372,143.561 						"/>
						<polygon fill="#FFFFFF" points="203.697,137.298 191.587,137.182 192.067,143.561 204.172,143.561 						"/>
						<path fill="#FFFFFF" d="M254.082,137.776l-12.111-0.115c0.299,2.152,0.794,4.118,1.475,5.899h15.231
							C256.305,142.977,254.666,141.235,254.082,137.776z"/>
						<path fill="#FFFFFF" d="M277.922,138.01l-11.444-0.11c-0.086,3.377-1.458,5.083-3.715,5.661h14.579
							C277.73,141.877,277.927,140.021,277.922,138.01z"/>
						<polygon fill="#FFFFFF" points="304.988,138.262 292.878,138.147 293.289,143.561 305.39,143.561 						"/>
						<polygon fill="#FFFFFF" points="362.242,138.812 350.132,138.691 350.499,143.561 362.602,143.561 						"/>
						<polygon fill="#FFFFFF" points="398.902,139.159 386.792,139.042 387.137,143.561 399.234,143.561 						"/>
						<polygon fill="#FFFFFF" points="443.285,139.583 432.63,139.48 432.614,139.722 432.56,139.48 420.771,139.368
							421.732,143.561 442.972,143.561 						"/>
						<path fill="#FFFFFF" d="M476.7,139.902l-12.317-0.117c0.299,1.343,0.693,2.599,1.167,3.776h15.184
							C478.915,143.103,477.525,141.958,476.7,139.902z"/>
						<path fill="#FFFFFF" d="M500.492,140.127l-12.288-0.117c-0.528,1.986-1.739,3.1-3.457,3.551h15.187
							C500.204,142.482,500.391,141.341,500.492,140.127z"/>
						<path fill="#FFFFFF" d="M525.534,140.37l-11.756-0.113c0.271,1.167,0.614,2.265,1.014,3.304h15.111
							C527.972,143.249,526.466,142.281,525.534,140.37z"/>
						<path fill="#FFFFFF" d="M549.094,140.593l-12.404-0.119c-0.658,1.837-2.001,2.78-3.842,3.087H548.6
							C548.822,142.622,548.992,141.639,549.094,140.593z"/>
					</g>
				</g>
				<g>
					<g>
						<path fill="#FFFFFF" d="M242.542,42.006h-4.176l-1.349,12.85h-5.783l1.35-12.85h-3.147l0.514-5.011h3.147l1.222-11.757h-3.213
							l0.514-5.012h3.213l1.092-10.343h5.782l-1.093,10.343h4.177l1.092-10.343h5.782l-1.092,10.343h3.277l-0.515,5.012h-3.276
							l-1.222,11.757h3.276l-0.514,5.011h-3.276l-1.35,12.85h-5.781L242.542,42.006z M238.88,36.995h4.177l1.22-11.757h-4.176
							L238.88,36.995z"/>
						<path fill="#FFFFFF" d="M268.306,28.835h9.7v6.425h-9.7v13.17h12.207v6.425h-19.274V9.883h19.274v6.425h-12.207V28.835z"/>
						<path fill="#FFFFFF" d="M295.033,22.282v32.573h-6.361V9.883h8.866l7.261,26.919V9.883h6.296v44.973h-7.26L295.033,22.282z"/>
						<path fill="#FFFFFF" d="M340.52,38.087v5.976c0,7.194-3.597,11.307-10.535,11.307s-10.537-4.112-10.537-11.307V20.677
							c0-7.196,3.599-11.308,10.537-11.308s10.535,4.112,10.535,11.308v4.368h-6.68v-4.819c0-3.212-1.415-4.432-3.663-4.432
							s-3.662,1.22-3.662,4.432v24.286c0,3.212,1.414,4.369,3.662,4.369s3.663-1.156,3.663-4.369v-6.425H340.52z"/>
						<path fill="#FFFFFF" d="M355.426,9.883v34.692c0,3.212,1.414,4.369,3.662,4.369c2.249,0,3.662-1.157,3.662-4.369V9.883h6.682
							v34.244c0,7.195-3.598,11.307-10.536,11.307c-6.939,0-10.536-4.111-10.536-11.307V9.883H355.426z"/>
						<path fill="#FFFFFF" d="M385.173,28.835h9.701v6.425h-9.701v13.17h12.207v6.425h-19.273V9.883h19.273v6.425h-12.207V28.835z"
							/>
						<path fill="#FFFFFF" d="M411.901,22.282v32.573h-6.361V9.883h8.866l7.26,26.919V9.883h6.296v44.973h-7.259L411.901,22.282z"/>
						<path fill="#FFFFFF" d="M434.837,9.883h21.844v6.425h-7.388v38.548h-7.067V16.308h-7.389V9.883z"/>
						<path fill="#FFFFFF" d="M478.396,54.855c-0.385-1.157-0.643-1.864-0.643-5.525v-7.067c0-4.176-1.412-5.718-4.626-5.718h-2.44
							v18.311h-7.067V9.883h10.665c7.324,0,10.472,3.405,10.472,10.343v3.534c0,4.626-1.477,7.646-4.625,9.124
							c3.533,1.478,4.689,4.883,4.689,9.572v6.939c0,2.185,0.064,3.791,0.771,5.461H478.396z M470.687,16.308V30.12h2.763
							c2.634,0,4.24-1.156,4.24-4.754v-4.433c0-3.213-1.092-4.626-3.598-4.626H470.687z"/>
						<path fill="#FFFFFF" d="M492.725,20.677c0-7.196,3.79-11.308,10.729-11.308c6.939,0,10.729,4.112,10.729,11.308v23.386
							c0,7.194-3.79,11.307-10.729,11.307c-6.938,0-10.729-4.112-10.729-11.307V20.677z M499.791,44.512
							c0,3.212,1.413,4.433,3.662,4.433s3.662-1.22,3.662-4.433V20.226c0-3.212-1.413-4.432-3.662-4.432s-3.662,1.22-3.662,4.432
							V44.512z"/>
						<path fill="#FFFFFF" d="M532.108,9.369c6.874,0,10.408,4.112,10.408,11.308v1.413h-6.682v-1.864
							c0-3.212-1.284-4.432-3.534-4.432c-2.248,0-3.533,1.22-3.533,4.432c0,9.252,13.813,10.987,13.813,23.836
							c0,7.194-3.599,11.307-10.537,11.307s-10.537-4.112-10.537-11.307v-2.763h6.683v3.212c0,3.212,1.413,4.369,3.662,4.369
							c2.248,0,3.662-1.156,3.662-4.369c0-9.251-13.812-10.987-13.812-23.835C521.701,13.481,525.233,9.369,532.108,9.369z"/>
					</g>
				</g>
			</g>
		</g>
	</g>
</switch>
</svg>
